<svg width="136" height="136" viewBox="0 0 136 136" fill="none" xmlns="http://www.w3.org/2000/svg">
<g clip-path="url(#clip0_40085_2305)">
<path d="M57.2875 66.5437L56.0425 66.4294C55.2262 66.3581 54.8975 66.0719 54.8975 65.5706C54.8975 64.9837 55.3981 64.5975 56.3712 64.5975C57.2875 64.5975 57.7456 64.9975 57.8169 65.6419H60.7369C60.5506 63.7387 59.2056 62.3931 56.4575 62.3931C53.595 62.3931 52.02 63.8531 52.02 65.785C52.02 67.5888 53.0075 68.5763 55.4556 68.7769L56.6869 68.8769C57.645 68.9488 57.9887 69.2775 57.9887 69.85C57.9887 70.4512 57.4881 70.895 56.4575 70.895C55.4981 70.895 54.9263 70.4656 54.8263 69.7075H51.7481C52.02 71.7825 53.48 73.1563 56.4431 73.1563C59.32 73.1563 60.9088 71.6825 60.9088 69.6925C60.9088 67.7606 59.8494 66.7731 57.2875 66.5437ZM47.2112 62.3931C45.3794 62.3931 44.2913 63.3519 43.7763 65.3131H43.59V62.565H40.6988V72.985H43.7763V66.9162C43.7763 65.5275 44.4919 64.7694 45.78 64.7694C47.0538 64.7694 47.6837 65.5569 47.6837 66.9019V72.985H50.7606V66.3581C50.7606 63.8387 49.4444 62.3931 47.2112 62.3931ZM37.7075 58.5C36.6625 58.5 35.875 59.1875 35.875 60.2319C35.875 61.2769 36.6481 61.9637 37.6931 61.9637C38.7381 61.9637 39.5106 61.2762 39.5106 60.2319C39.5106 59.2012 38.7381 58.5 37.7075 58.5ZM39.2387 62.565H36.1613V72.985H39.2387V62.565ZM65.7462 60.3606H63.7856C63.7281 62.0356 63.0125 62.765 61.4094 62.8938V65.0125H62.6694V69.5925C62.6694 71.8969 63.9856 73.1563 66.605 73.1563C67.0975 73.1563 67.5881 73.0937 68.065 72.9706V70.4938C67.8192 70.5345 67.5704 70.5536 67.3213 70.5506C66.2188 70.5506 65.7462 70.1356 65.7462 68.9762V65.0125H68.4519V62.565H65.7462V60.3606ZM114.554 65.0125V62.565H111.849V60.3606H109.916C109.873 61.52 109.53 62.1925 108.771 62.565V69.5925C108.771 71.8969 110.088 73.1563 112.707 73.1563C113.2 73.1563 113.691 73.0937 114.167 72.9706V70.4938C113.922 70.5346 113.672 70.5536 113.423 70.5506C112.321 70.5506 111.849 70.1356 111.849 68.9762V65.0125H114.554ZM104.477 65.4706H104.291V62.5644H101.443V72.985H104.521V67.3456C104.521 65.785 105.222 65.1269 106.825 65.1269C107.097 65.1269 107.397 65.1556 107.812 65.2269V62.5363C107.532 62.4378 107.237 62.3894 106.939 62.3931C105.694 62.3931 104.835 63.1087 104.477 65.4706ZM84.8256 70.5231C83.38 70.5231 82.335 69.5638 82.335 67.7031C82.335 66.0431 83.3081 65.0125 84.7969 65.0125C86.0706 65.0125 86.8006 65.7281 87.0156 66.8731H90.1356C89.835 64.1963 87.9175 62.3931 84.84 62.3931C81.4619 62.3931 79.2437 64.6831 79.2437 67.8181C79.2437 71.0669 81.3763 73.1563 84.7969 73.1563C87.9031 73.1563 89.9212 71.425 90.2075 68.6188H87.0869C86.9156 69.7644 86.1281 70.5231 84.8256 70.5231ZM73.7906 62.3931C71.1138 62.3931 69.4969 63.71 69.21 66.0713H72.1588C72.2588 65.2556 72.7888 64.8262 73.7188 64.8262C74.6631 64.8262 75.0925 65.2556 75.0925 65.8712C75.0925 66.3862 74.7638 66.6588 73.9194 66.8156L72.5162 67.0738C70.0406 67.5313 69.0956 68.5475 69.0956 70.165C69.0956 72.0112 70.3981 73.1713 72.2019 73.1713C73.6756 73.1713 74.635 72.4837 75.0787 70.7662H75.2644V72.985H78.1706V66.1863C78.1706 63.8244 76.7531 62.3931 73.7906 62.3931ZM73.4469 71.0669C72.6169 71.0669 72.1444 70.6231 72.1444 69.9644C72.1444 69.4206 72.4737 69.0487 73.2894 68.8625L73.8619 68.7338C74.3556 68.6194 74.7388 68.4669 75.0931 68.1606V69.2631C75.0931 70.5369 74.42 71.0669 73.4469 71.0669ZM95.6606 62.3931C92.9838 62.3931 91.3669 63.71 91.0806 66.0713H94.0288C94.1294 65.2556 94.6587 64.8262 95.5887 64.8262C96.5337 64.8262 96.9631 65.2556 96.9631 65.8712C96.9631 66.3862 96.6337 66.6588 95.7894 66.8156L94.3869 67.0738C91.9106 67.5313 90.9656 68.5475 90.9656 70.165C90.9656 72.0112 92.2681 73.1713 94.0719 73.1713C95.5462 73.1713 96.505 72.4837 96.9488 70.7662H97.135V72.985H100.041V66.1863C100.041 63.8244 98.6231 62.3931 95.6606 62.3931ZM95.3169 71.0669C94.4869 71.0669 94.0144 70.6231 94.0144 69.9644C94.0144 69.4206 94.3438 69.0487 95.1594 68.8625L95.7319 68.7338C96.2256 68.6194 96.6094 68.4669 96.9631 68.1606V69.2631C96.9631 70.5369 96.2906 71.0669 95.3169 71.0669Z" fill="black"/>
<path d="M30.9813 60.9931C30.3488 60.9931 29.8975 61.2687 29.4813 61.8675L28.2813 63.5906V58.6719H25.4188V63.5906L24.2188 61.8675C23.8031 61.2687 23.3519 60.9931 22.7188 60.9931C21.7638 60.9931 21.1281 61.6981 21.125 62.5669C21.1225 63.3106 21.4731 63.7956 22.2125 64.2719L26.85 67.2594L31.4875 64.2719C32.2269 63.7956 32.5775 63.3106 32.575 62.5669C32.5725 61.6981 31.9363 60.9931 30.9813 60.9931Z" fill="black"/>
<path d="M26.8502 67.9751C29.6065 67.9751 31.8658 70.0326 31.8596 72.9851H21.8408C21.8352 70.0338 24.094 67.9751 26.8502 67.9751Z" fill="black"/>
</g>
<defs>
<clipPath id="clip0_40085_2305">
<rect width="93.75" height="15" fill="white" transform="translate(21.125 58.5)"/>
</clipPath>
</defs>
</svg>
